<?xml version="1.0" encoding="iso-8859-1"?>
<!-- Uploaded to: SVG Repo, www.svgrepo.com, Generator: SVG Repo Mixer Tools -->
<svg height="800px" width="800px" version="1.1" id="Layer_1" xmlns="http://www.w3.org/2000/svg" xmlns:xlink="http://www.w3.org/1999/xlink" 
	 viewBox="0 0 512 512" xml:space="preserve">
<g>
	<path style="fill:#16153B;" d="M424.423,161.995c-7.876,0-14.261-6.385-14.261-14.261c0-6.198,3.953-11.471,9.476-13.438
		l-36.276-48.559L347.7,133.475h22.826c7.876,0,14.261,6.385,14.261,14.261c0,7.876-6.385,14.261-14.261,14.261h-28.225
		c-9.831,0-18.674-5.46-23.08-14.249c-4.405-8.789-3.487-19.141,2.397-27.017l41.061-54.964c4.92-6.587,12.458-10.366,20.681-10.366
		s15.761,3.778,20.682,10.366l41.059,54.964c5.884,7.876,6.802,18.228,2.397,27.017
		C443.097,156.536,434.253,161.995,424.423,161.995z"/>
	<path style="fill:#16153B;" d="M383.363,307.523c-8.223,0-15.761-3.778-20.682-10.366l-41.061-54.964
		c-5.884-7.876-6.802-18.228-2.397-27.017c4.405-8.789,13.248-14.249,23.08-14.249c7.876,0,14.261,6.385,14.261,14.261
		c0,6.198-3.953,11.471-9.476,13.438l36.276,48.559l35.662-47.738h-22.826c-7.876,0-14.261-6.385-14.261-14.261
		s6.385-14.261,14.261-14.261h28.225c9.831,0,18.674,5.46,23.08,14.249c4.405,8.789,3.487,19.141-2.397,27.017l-41.061,54.964
		C399.123,303.745,391.586,307.523,383.363,307.523z"/>
</g>
<circle style="fill:#97C4E8;" cx="203.357" cy="370.38" r="61.963"/>
<g>
	<path style="fill:#16153B;" d="M203.361,446.602c-42.031,0-76.225-34.194-76.225-76.225s34.194-76.225,76.225-76.225
		s76.225,34.194,76.225,76.225S245.392,446.602,203.361,446.602z M203.361,322.673c-26.304,0-47.704,21.4-47.704,47.704
		c0,26.304,21.4,47.704,47.704,47.704s47.704-21.4,47.704-47.704C251.065,344.073,229.665,322.673,203.361,322.673z"/>
	<path style="fill:#16153B;" d="M203.361,512c-78.092,0-141.625-63.531-141.625-141.625c0-53.335,29.849-101.784,76.813-125.948
		V64.811C138.549,29.075,167.624,0,203.361,0s64.812,29.075,64.812,64.811v95.641c0,7.876-6.385,14.261-14.261,14.261
		c-7.876,0-14.261-6.385-14.261-14.261V64.811c0-20.011-16.28-36.289-36.291-36.289s-36.291,16.28-36.291,36.289v188.638
		c0,5.686-3.377,10.828-8.595,13.087c-41.44,17.941-68.216,58.7-68.216,103.841c0,62.365,50.738,113.103,113.103,113.103
		s113.103-50.738,113.103-113.103c0-45.141-26.777-85.899-68.216-103.841c-5.218-2.259-8.595-7.401-8.595-13.087v-29.704
		c0-7.876,6.385-14.261,14.261-14.261c7.876,0,14.261,6.385,14.261,14.261v20.682c46.963,24.165,76.813,72.613,76.813,125.948
		C344.986,448.468,281.453,512,203.361,512z"/>
	<path style="fill:#16153B;" d="M203.361,322.673c-7.876,0-14.261-6.385-14.261-14.261V113.679c0-7.876,6.385-14.261,14.261-14.261
		s14.261,6.385,14.261,14.261v194.733C217.622,316.289,211.238,322.673,203.361,322.673z"/>
</g>
</svg>